<svg xmlns="http://www.w3.org/2000/svg" viewBox="0 0 103.05 40.28"><defs><style>.cls-1{fill:#414042;}</style></defs><title>Asset 16</title><g id="Layer_2" data-name="Layer 2"><g id="Layer_1-2" data-name="Layer 1"><path class="cls-1" d="M31.71,28.24c0,7-1.65,12-10,12-2.6,0-5.52-1.27-8.18-2.6s-5.15-2.54-7-2.54c-2.34,0-3.42,2.35-3.42,4.51H0C0,16.75,24.29,26,24.29,11.42c0-5.33-4.56-8.25-9.45-8.25-4.06,0-8.81,1.21-10,5.71,2.79,0,4.37,1,4.37,3.81a3.55,3.55,0,0,1-3.87,3.55C2.22,16.24,1,13.83,1,11,1,2.6,9.7,0,16.48,0,24,0,30.63,4.13,30.63,12.24c0,15.41-22.71,9.77-26,20.61a6.92,6.92,0,0,1,3.61-1.27c1.52,0,4.18.82,7,1.65a34.57,34.57,0,0,0,8.18,1.65c4.5,0,5.26-3,5.26-6.64Z"/><path class="cls-1" d="M39.07,40.28V37H45.9c2.15,0,2.61-1,2.61-3V10H39.21V6.76C44.08,6.76,49.41,5.39,51,0h3.38V34c0,2,.46,3,2.61,3h6.43v3.25Z"/><path class="cls-1" d="M103.05,28.24c0,7-1.65,12-10,12-2.6,0-5.52-1.27-8.18-2.6s-5.15-2.54-7-2.54c-2.34,0-3.42,2.35-3.42,4.51H71.34c0-22.9,24.29-13.64,24.29-28.22,0-5.33-4.56-8.25-9.45-8.25-4.06,0-8.81,1.21-10,5.71,2.79,0,4.37,1,4.37,3.81a3.55,3.55,0,0,1-3.87,3.55c-3.11,0-4.37-2.41-4.37-5.26C72.3,2.6,81,0,87.83,0,95.32,0,102,4.13,102,12.24,102,27.66,79.27,22,76,32.85a6.92,6.92,0,0,1,3.61-1.27c1.52,0,4.18.82,7,1.65a34.57,34.57,0,0,0,8.18,1.65c4.5,0,5.26-3,5.26-6.64Z"/><path class="cls-1" d="M34.9,25.49V20h.7v4.87h1.56v.66Z"/><path class="cls-1" d="M42.85,25.75c-1.18,0-1.9-1.17-1.9-2.9S41.65,20,42.85,20s1.89,1.16,1.89,2.89S44,25.75,42.85,25.75Zm0-5.16c-.77,0-1.15,1-1.15,2.25s.38,2.26,1.15,2.26,1.15-1,1.15-2.26S43.6,20.6,42.85,20.6Z"/><path class="cls-1" d="M59.93,20.6v1.78h1.5V23h-1.5v2.5h-.7V20h2.32v.64Z"/><path class="cls-1" d="M67.1,20.56v4.92h-.69V20.56H65.35V20h2.8v.6Z"/></g></g></svg>