<svg xmlns="http://www.w3.org/2000/svg" viewBox="0 0 26.41 26.42"><defs><style>.cls-1{fill:#414042;}</style></defs><title>Asset 16</title><g id="Layer_2" data-name="Layer 2"><g id="Layer_1-2" data-name="Layer 1"><path class="cls-1" d="M21.31,0H5.1A5.11,5.11,0,0,0,0,5.1V21.31a5.11,5.11,0,0,0,5.1,5.1h16.2a5.11,5.11,0,0,0,5.1-5.1V5.1A5.11,5.11,0,0,0,21.31,0Zm1.46,3h.58V7.52H18.89l0-4.48ZM9.44,10.5a4.64,4.64,0,1,1-.88,2.71A4.64,4.64,0,0,1,9.44,10.5Zm14.4,10.81a2.53,2.53,0,0,1-2.53,2.53H5.1a2.53,2.53,0,0,1-2.53-2.53V10.5H6.52a7.22,7.22,0,1,0,13.38,0h3.94Z"/></g></g></svg>